<?xml version="1.0" encoding="utf-8"?>
<!-- Generator: Adobe Illustrator 26.3.1, SVG Export Plug-In . SVG Version: 6.00 Build 0)  -->
<svg version="1.1" xmlns="http://www.w3.org/2000/svg" xmlns:xlink="http://www.w3.org/1999/xlink" x="0px" y="0px"
	 viewBox="0 0 1148 76" style="enable-background:new 0 0 1148 76;" xml:space="preserve">
<style type="text/css">
	.st0{fill:#FFC5AA;}
	.st1{fill:#ff8b50;}
</style>
<g id="Layer_1">
	<path class="st0" d="M2.48,74.5c28.02-3.62,56.03-7.25,84.05-10.87c51.74-6.12,103.58-12.71,155.15-20.13
		c38.57-5.55,77.08-6.2,115.91-6.78c14.11-0.21,28.21-0.42,42.32-0.64c19.41-0.3,38.83-0.6,58.24-0.9
		c23.55-0.37,47.1-0.74,70.65-1.11c26.51-0.42,53.03-0.84,79.54-1.26c28.31-0.45,56.61-0.9,84.92-1.35
		c28.93-0.46,57.86-0.92,86.79-1.38c28.38-0.45,56.76-0.91,85.14-1.36c26.66-0.43,53.32-0.85,79.98-1.28
		c23.77-0.38,47.53-0.76,71.3-1.14c19.7-0.32,39.41-0.63,59.11-0.95c14.47-0.23,28.94-0.47,43.4-0.7
		c8.06-0.13,16.12-0.26,24.19-0.39c1.28-0.02,2.56-0.04,3.84-0.06c0,0,0-21.97,0-21.97L2.48,0.9C2.48,0.9,2.48,74.5,2.48,74.5z"/>
	<path class="st1" d="M2.48,73.54L215,36c0,0,51-12,101-12s274-3,274-3l233-3l324-3.35V2.23L2.48,0.9V73.54z"/>
</g>
<g id="Layer_3">
</g>
<g id="Layer_2">
</g>
</svg>
